<svg width="304" height="42" viewBox="0 0 304 42" fill="none" xmlns="http://www.w3.org/2000/svg">
<path d="M27.8359 1.02344V-0.976562H26.3738L25.9302 0.416668L27.8359 1.02344ZM36.3945 1.02344L38.2881 1.66715L39.1868 -0.976562H36.3945V1.02344ZM22.8047 41V43H24.2372L24.6983 41.6437L22.8047 41ZM13.5625 41L11.6685 41.6426L12.1291 43H13.5625V41ZM0 1.02344V-0.976562H-2.79049L-1.89397 1.66599L0 1.02344ZM8.55859 1.02344L10.4656 0.42065L10.0239 -0.976562H8.55859V1.02344ZM16.0781 24.8125L17.9945 24.2401L17.9899 24.2249L17.9851 24.2097L16.0781 24.8125ZM17.3633 29.7344L15.4155 30.1882L15.4181 30.1994L15.4208 30.2105L17.3633 29.7344ZM18.2109 33.6172L16.2331 33.9139L20.1968 33.8546L18.2109 33.6172ZM20.2617 24.8125L18.356 24.2057L18.3448 24.2408L18.3349 24.2763L20.2617 24.8125ZM27.8359 3.02344H36.3945V-0.976562H27.8359V3.02344ZM34.501 0.379725L20.9111 40.3563L24.6983 41.6437L38.2881 1.66715L34.501 0.379725ZM22.8047 39H13.5625V43H22.8047V39ZM15.4565 40.3574L1.89397 0.380886L-1.89397 1.66599L11.6685 41.6426L15.4565 40.3574ZM0 3.02344H8.55859V-0.976562H0V3.02344ZM6.65159 1.62622L14.1711 25.4153L17.9851 24.2097L10.4656 0.42065L6.65159 1.62622ZM14.1618 25.3849C14.5664 26.7394 14.9845 28.3388 15.4155 30.1882L19.3111 29.2805C18.867 27.3747 18.4284 25.6929 17.9945 24.2401L14.1618 25.3849ZM15.4208 30.2105C15.8778 32.075 16.139 33.2867 16.2331 33.9139L20.1888 33.3205C20.0641 32.4893 19.7603 31.1125 19.3058 29.2583L15.4208 30.2105ZM20.1968 33.8546C20.3769 32.3481 21.0197 29.5492 22.1885 25.3487L18.3349 24.2763C17.1704 28.4612 16.446 31.5321 16.2251 33.3797L20.1968 33.8546ZM22.1675 25.4193L29.7417 1.63021L25.9302 0.416668L18.356 24.2057L22.1675 25.4193ZM65.9258 41L64.0126 41.5828L64.4443 43H65.9258V41ZM63.0273 31.4844L64.9406 30.9016L64.5089 29.4844H63.0273V31.4844ZM48.4531 31.4844V29.4844H46.9716L46.5399 30.9016L48.4531 31.4844ZM45.5547 41V43H47.0362L47.4679 41.5828L45.5547 41ZM36.4219 41L34.535 40.3368L33.5989 43H36.4219V41ZM50.5312 0.859375V-1.14062H49.1143L48.6444 0.196156L50.5312 0.859375ZM60.8945 0.859375L62.7806 0.193869L62.3097 -1.14062H60.8945V0.859375ZM75.0586 41V43H77.8852L76.9446 40.3345L75.0586 41ZM61.0039 24.375V26.375H63.7198L62.9138 23.7814L61.0039 24.375ZM56.4648 9.74609L54.5442 10.3037L54.5483 10.3179L54.5526 10.3321L56.4648 9.74609ZM55.7539 7.06641L57.7063 6.63255L53.8172 6.56711L55.7539 7.06641ZM50.5859 24.375L48.675 23.7847L47.8749 26.375H50.5859V24.375ZM67.839 40.4172L64.9406 30.9016L61.1141 32.0671L64.0126 41.5828L67.839 40.4172ZM63.0273 29.4844H48.4531V33.4844H63.0273V29.4844ZM46.5399 30.9016L43.6415 40.4172L47.4679 41.5828L50.3663 32.0671L46.5399 30.9016ZM45.5547 39H36.4219V43H45.5547V39ZM38.3087 41.6632L52.4181 1.52259L48.6444 0.196156L34.535 40.3368L38.3087 41.6632ZM50.5312 2.85938H60.8945V-1.14062H50.5312V2.85938ZM59.0085 1.52488L73.1726 41.6655L76.9446 40.3345L62.7806 0.193869L59.0085 1.52488ZM75.0586 39H65.9258V43H75.0586V39ZM62.9138 23.7814C60.2332 15.1562 58.7219 10.2854 58.3771 9.16009L54.5526 10.3321C54.9005 11.4672 56.4152 16.349 59.094 24.9686L62.9138 23.7814ZM58.3855 9.18847C58.0619 8.07378 57.8385 7.2276 57.7063 6.63255L53.8015 7.50027C53.961 8.21771 54.2115 9.15799 54.5442 10.3037L58.3855 9.18847ZM53.8172 6.56711C53.2302 8.84426 51.524 14.5621 48.675 23.7847L52.4968 24.9653C55.3354 15.7764 57.0745 9.95522 57.6906 7.5657L53.8172 6.56711ZM50.5859 26.375H61.0039V22.375H50.5859V26.375ZM80.1172 41H78.1172V43H80.1172V41ZM80.1172 1.02344V-0.976562H78.1172V1.02344H80.1172ZM88.5938 1.02344H90.5938V-0.976562H88.5938V1.02344ZM88.5938 34H86.5938V36H88.5938V34ZM104.809 34H106.809V32H104.809V34ZM104.809 41V43H106.809V41H104.809ZM82.1172 41V1.02344H78.1172V41H82.1172ZM80.1172 3.02344H88.5938V-0.976562H80.1172V3.02344ZM86.5938 1.02344V34H90.5938V1.02344H86.5938ZM88.5938 36H104.809V32H88.5938V36ZM102.809 34V41H106.809V34H102.809ZM104.809 39H80.1172V43H104.809V39ZM114.926 5.67188L113.467 4.30374L113.467 4.30399L114.926 5.67188ZM143.172 5.69922L141.698 7.05136L141.702 7.05546L143.172 5.69922ZM121.461 10.8672L123.055 12.0754L123.059 12.0692L121.461 10.8672ZM146.066 20.957C146.066 27.2585 144.507 31.7907 141.675 34.8583L144.614 37.5714C148.345 33.5296 150.066 27.8899 150.066 20.957H146.066ZM141.675 34.8583C138.868 37.8994 134.76 39.5469 129.035 39.5469V43.5469C135.56 43.5469 140.859 41.6396 144.614 37.5714L141.675 34.8583ZM129.035 39.5469C123.31 39.5469 119.203 37.8994 116.395 34.8583L113.456 37.5714C117.211 41.6396 122.51 43.5469 129.035 43.5469V39.5469ZM116.395 34.8583C113.565 31.7926 112.004 27.2437 112.004 20.9023H108.004C108.004 27.8682 109.724 33.5278 113.456 37.5714L116.395 34.8583ZM112.004 20.9023C112.004 14.5585 113.566 10.0461 116.385 7.03976L113.467 4.30399C109.723 8.29767 108.004 13.9389 108.004 20.9023H112.004ZM116.385 7.04001C119.209 4.02864 123.339 2.39453 129.09 2.39453V-1.60547C122.554 -1.60547 117.242 0.278648 113.467 4.30374L116.385 7.04001ZM129.09 2.39453C134.839 2.39453 138.932 4.03634 141.698 7.05136L144.646 4.34708C140.922 0.289177 135.627 -1.60547 129.09 -1.60547V2.39453ZM141.702 7.05546C144.513 10.1022 146.066 14.6322 146.066 20.957H150.066C150.066 14.0111 148.357 8.3692 144.642 4.34297L141.702 7.05546ZM116.891 20.957C116.891 25.6221 117.767 29.491 119.834 32.2469L123.034 29.8469C121.71 28.0819 120.891 25.2243 120.891 20.957H116.891ZM119.834 32.2469C121.982 35.1114 125.17 36.4375 129.035 36.4375V32.4375C126.155 32.4375 124.276 31.5032 123.034 29.8469L119.834 32.2469ZM129.035 36.4375C132.902 36.4375 136.095 35.123 138.242 32.27C140.308 29.524 141.18 25.6439 141.18 20.957H137.18C137.18 25.2571 136.361 28.1172 135.046 29.8648C133.811 31.5053 131.931 32.4375 129.035 32.4375V36.4375ZM141.18 20.957C141.18 16.2634 140.313 12.3789 138.26 9.62929C136.124 6.77011 132.944 5.44922 129.09 5.44922V9.44922C131.962 9.44922 133.827 10.3796 135.055 12.0231C136.364 13.7761 137.18 16.6455 137.18 20.957H141.18ZM129.09 5.44922C125.219 5.44922 122.026 6.78872 119.862 9.66514L123.059 12.0692C124.323 10.3884 126.216 9.44922 129.09 9.44922V5.44922ZM119.867 9.65898C117.777 12.4161 116.891 16.2886 116.891 20.957H120.891C120.891 16.6932 121.718 13.8391 123.055 12.0754L119.867 9.65898ZM164.828 18.7695H162.828V20.7695H164.828V18.7695ZM173.441 9.17188L172.388 10.8719L172.399 10.8784L173.441 9.17188ZM164.828 7.96875V5.96875H162.828V7.96875H164.828ZM164.828 25.6602V23.6602H162.828V25.6602H164.828ZM164.828 41V43H166.828V41H164.828ZM156.352 41H154.352V43H156.352V41ZM156.352 1.02344V-0.976562H154.352V1.02344H156.352ZM180.059 4.00391L178.846 5.59453L178.853 5.59988L180.059 4.00391ZM182.027 19.2891L183.658 20.4469L183.664 20.4392L182.027 19.2891ZM176.531 23.582L175.728 21.7504L173.541 22.7095L174.869 24.6945L176.531 23.582ZM188.289 41V43H192.113L189.932 39.8592L188.289 41ZM178.883 41L177.185 42.0565L177.772 43H178.883V41ZM169.34 25.6602L171.038 24.6037L170.451 23.6602H169.34V25.6602ZM164.828 20.7695H167.562V16.7695H164.828V20.7695ZM167.562 20.7695C170.389 20.7695 172.865 20.3124 174.643 19.0681L172.349 15.7912C171.575 16.3334 170.095 16.7695 167.562 16.7695V20.7695ZM174.643 19.0681C176.578 17.7134 177.41 15.6167 177.41 13.2188H173.41C173.41 14.6489 172.966 15.3596 172.349 15.7912L174.643 19.0681ZM177.41 13.2188C177.41 10.8137 176.536 8.71884 174.484 7.46531L172.399 10.8784C172.972 11.2291 173.41 11.8321 173.41 13.2188H177.41ZM174.495 7.47186C172.721 6.37246 170.249 5.96875 167.398 5.96875V9.96875C170.016 9.96875 171.573 10.3671 172.388 10.8719L174.495 7.47186ZM167.398 5.96875H164.828V9.96875H167.398V5.96875ZM162.828 7.96875V18.7695H166.828V7.96875H162.828ZM162.828 25.6602V41H166.828V25.6602H162.828ZM164.828 39H156.352V43H164.828V39ZM158.352 41V1.02344H154.352V41H158.352ZM156.352 3.02344H168V-0.976562H156.352V3.02344ZM168 3.02344C173.257 3.02344 176.751 3.99759 178.846 5.59451L181.271 2.4133C178.153 0.0362682 173.607 -0.976562 168 -0.976562V3.02344ZM178.853 5.59988C180.843 7.10228 181.969 9.43573 181.969 13H185.969C185.969 8.50698 184.488 4.84303 181.264 2.40793L178.853 5.59988ZM181.969 13C181.969 14.9595 181.438 16.6503 180.391 18.1389L183.664 20.4392C185.206 18.2456 185.969 15.7436 185.969 13H181.969ZM180.397 18.1312C179.343 19.6148 177.819 20.8335 175.728 21.7504L177.334 25.4137C179.983 24.2524 182.123 22.6092 183.658 20.4469L180.397 18.1312ZM174.869 24.6945C180.882 33.6779 184.812 39.499 186.646 42.1408L189.932 39.8592C188.121 37.251 184.211 31.4601 178.193 22.4695L174.869 24.6945ZM188.289 39H178.883V43H188.289V39ZM180.581 39.9435L171.038 24.6037L167.642 26.7166L177.185 42.0565L180.581 39.9435ZM169.34 23.6602H164.828V27.6602H169.34V23.6602ZM217.793 41L215.88 41.5828L216.311 43H217.793V41ZM214.895 31.4844L216.808 30.9016L216.376 29.4844H214.895V31.4844ZM200.32 31.4844V29.4844H198.839L198.407 30.9016L200.32 31.4844ZM197.422 41V43H198.903L199.335 41.5828L197.422 41ZM188.289 41L186.402 40.3368L185.466 43H188.289V41ZM202.398 0.859375V-1.14062H200.981L200.512 0.196156L202.398 0.859375ZM212.762 0.859375L214.648 0.193869L214.177 -1.14062H212.762V0.859375ZM226.926 41V43H229.752L228.812 40.3345L226.926 41ZM212.871 24.375V26.375H215.587L214.781 23.7814L212.871 24.375ZM208.332 9.74609L206.411 10.3037L206.415 10.3179L206.42 10.3321L208.332 9.74609ZM207.621 7.06641L209.573 6.63255L205.684 6.56711L207.621 7.06641ZM202.453 24.375L200.542 23.7847L199.742 26.375H202.453V24.375ZM219.706 40.4172L216.808 30.9016L212.981 32.0671L215.88 41.5828L219.706 40.4172ZM214.895 29.4844H200.32V33.4844H214.895V29.4844ZM198.407 30.9016L195.509 40.4172L199.335 41.5828L202.234 32.0671L198.407 30.9016ZM197.422 39H188.289V43H197.422V39ZM190.176 41.6632L204.285 1.52259L200.512 0.196156L186.402 40.3368L190.176 41.6632ZM202.398 2.85938H212.762V-1.14062H202.398V2.85938ZM210.876 1.52488L225.04 41.6655L228.812 40.3345L214.648 0.193869L210.876 1.52488ZM226.926 39H217.793V43H226.926V39ZM214.781 23.7814C212.1 15.1562 210.589 10.2854 210.244 9.16009L206.42 10.3321C206.768 11.4672 208.282 16.349 210.961 24.9686L214.781 23.7814ZM210.253 9.18847C209.929 8.07378 209.706 7.2276 209.573 6.63255L205.669 7.50027C205.828 8.21771 206.079 9.15799 206.411 10.3037L210.253 9.18847ZM205.684 6.56711C205.097 8.84426 203.391 14.5621 200.542 23.7847L204.364 24.9653C207.203 15.7764 208.942 9.95522 209.558 7.5657L205.684 6.56711ZM202.453 26.375H212.871V22.375H202.453V26.375ZM267.449 41V43H269.449V41H267.449ZM256.676 41L254.942 41.997L255.519 43H256.676V41ZM239.285 10.7578L241.019 9.76081L240.442 8.75781H239.285V10.7578ZM239.039 10.7578V8.75781H236.905L237.043 10.8872L239.039 10.7578ZM239.559 41V43H241.559V41H239.559ZM231.984 41H229.984V43H231.984V41ZM231.984 1.02344V-0.976562H229.984V1.02344H231.984ZM242.676 1.02344L244.406 0.0201187L243.828 -0.976562H242.676V1.02344ZM260.039 30.9648L258.309 31.9682L258.887 32.9648H260.039V30.9648ZM260.23 30.9648V32.9648H262.339L262.228 30.8597L260.23 30.9648ZM259.82 1.02344V-0.976562H257.82V1.02344H259.82ZM267.449 1.02344H269.449V-0.976562H267.449V1.02344ZM267.449 39H256.676V43H267.449V39ZM258.41 40.003L241.019 9.76081L237.551 11.7548L254.942 41.997L258.41 40.003ZM239.285 8.75781H239.039V12.7578H239.285V8.75781ZM237.043 10.8872C237.39 16.227 237.559 19.9798 237.559 22.1875H241.559C241.559 19.8379 241.381 15.9709 241.035 10.6284L237.043 10.8872ZM237.559 22.1875V41H241.559V22.1875H237.559ZM239.559 39H231.984V43H239.559V39ZM233.984 41V1.02344H229.984V41H233.984ZM231.984 3.02344H242.676V-0.976562H231.984V3.02344ZM240.946 2.02676L258.309 31.9682L261.769 29.9615L244.406 0.0201187L240.946 2.02676ZM260.039 32.9648H260.23V28.9648H260.039V32.9648ZM262.228 30.8597C261.954 25.6643 261.82 22.0382 261.82 19.9453H257.82C257.82 22.1545 257.96 25.8747 258.233 31.07L262.228 30.8597ZM261.82 19.9453V1.02344H257.82V19.9453H261.82ZM259.82 3.02344H267.449V-0.976562H259.82V3.02344ZM265.449 1.02344V41H269.449V1.02344H265.449ZM292.961 41V43H294.961V41H292.961ZM284.484 41H282.484V43H284.484V41ZM284.484 8.07812H286.484V6.07812H284.484V8.07812ZM273.629 8.07812H271.629V10.0781H273.629V8.07812ZM273.629 1.02344V-0.976562H271.629V1.02344H273.629ZM303.816 1.02344H305.816V-0.976562H303.816V1.02344ZM303.816 8.07812V10.0781H305.816V8.07812H303.816ZM292.961 8.07812V6.07812H290.961V8.07812H292.961ZM292.961 39H284.484V43H292.961V39ZM286.484 41V8.07812H282.484V41H286.484ZM284.484 6.07812H273.629V10.0781H284.484V6.07812ZM275.629 8.07812V1.02344H271.629V8.07812H275.629ZM273.629 3.02344H303.816V-0.976562H273.629V3.02344ZM301.816 1.02344V8.07812H305.816V1.02344H301.816ZM303.816 6.07812H292.961V10.0781H303.816V6.07812ZM290.961 8.07812V41H294.961V8.07812H290.961Z" fill="white"/>
</svg>
